<svg xmlns="http://www.w3.org/2000/svg" xmlns:xlink="http://www.w3.org/1999/xlink" version="1.1" x="0px" y="0px" viewBox="0 0 74 74" style="enable-background:new 0 0 74 74;" xml:space="preserve"><g><path fill="#f00" d="M69,68h-6.2v-1.1c0-2.3-1.9-4.2-4.2-4.2H47.8L42,34.6c0,0,0,0,0,0L39.4,22c0.9-0.7,1.4-1.8,1.4-3c0-2.1-1.7-3.8-3.8-3.8   s-3.8,1.7-3.8,3.8c0,1.2,0.6,2.3,1.4,3l-1.7,8.3c0,0,0,0,0,0l-4.1,20c0,0,0,0,0,0s0,0,0,0l-2.6,12.5H15.4c-2.3,0-4.2,1.9-4.2,4.2   V68H5c-0.6,0-1,0.4-1,1s0.4,1,1,1h7.2h49.6H69c0.6,0,1-0.4,1-1S69.6,68,69,68z M34.6,32l4.4,2.7l-5.5,2.8L34.6,32z M43.8,53.3   l-11.3-3l9.7-4.9L43.8,53.3z M41.6,42.2l-7.1-3l5.9-2.9L41.6,42.2z M32.8,40.7l7.7,3.3l-9.4,4.7L32.8,40.7z M30.5,51.7l11.9,3.2   l-14,7L30.5,51.7z M44.4,56.1l1.4,6.6H31.2L44.4,56.1z M37,17.2c1,0,1.8,0.8,1.8,1.8S38,20.9,37,20.9c-1,0-1.8-0.8-1.8-1.8   S36,17.2,37,17.2z M37,22.9c0.2,0,0.4,0,0.5-0.1l2.1,9.9L35,29.9l1.5-7.1C36.7,22.8,36.8,22.9,37,22.9z M13.2,68v-1.1   c0-1.2,1-2.2,2.2-2.2h43.2c1.2,0,2.2,1,2.2,2.2V68H13.2z"/><path fill="#f00" d="M50.3,32.4c-0.4,0.4-0.4,1,0,1.4c0.2,0.2,0.5,0.3,0.7,0.3s0.5-0.1,0.7-0.3c8.1-8.1,8.1-21.4,0-29.5c-0.4-0.4-1-0.4-1.4,0   s-0.4,1,0,1.4C57.7,13.1,57.7,25,50.3,32.4z"/><path fill="#f00" d="M23,34.1c0.3,0,0.5-0.1,0.7-0.3c0.4-0.4,0.4-1,0-1.4c-7.4-7.4-7.4-19.3,0-26.7c0.4-0.4,0.4-1,0-1.4s-1-0.4-1.4,0   c-8.1,8.1-8.1,21.4,0,29.5C22.5,34,22.7,34.1,23,34.1z"/><path fill="#f00" d="M50.2,19c0,3.5-1.4,6.8-3.9,9.3c-0.4,0.4-0.4,1,0,1.4c0.2,0.2,0.5,0.3,0.7,0.3s0.5-0.1,0.7-0.3c2.9-2.9,4.4-6.7,4.4-10.7   c0-4.1-1.6-7.9-4.4-10.7c-0.4-0.4-1-0.4-1.4,0s-0.4,1,0,1.4C48.8,12.2,50.2,15.5,50.2,19z"/><path fill="#f00" d="M26.3,29.8c0.2,0.2,0.5,0.3,0.7,0.3s0.5-0.1,0.7-0.3c0.4-0.4,0.4-1,0-1.4c-2.5-2.5-3.9-5.8-3.9-9.3c0-3.5,1.4-6.8,3.9-9.3   c0.4-0.4,0.4-1,0-1.4s-1-0.4-1.4,0c-2.9,2.9-4.4,6.7-4.4,10.7C21.8,23.1,23.4,26.9,26.3,29.8z"/><path fill="#f00" d="M42.3,25.8c0.2,0.2,0.5,0.3,0.7,0.3s0.5-0.1,0.7-0.3c1.8-1.8,2.8-4.2,2.8-6.7c0-2.5-1-4.9-2.8-6.7c-0.4-0.4-1-0.4-1.4,0   s-0.4,1,0,1.4c1.4,1.4,2.2,3.3,2.2,5.3c0,2-0.8,3.9-2.2,5.3C41.9,24.7,41.9,25.4,42.3,25.8z"/><path fill="#f00" d="M30.3,25.8c0.2,0.2,0.5,0.3,0.7,0.3s0.5-0.1,0.7-0.3c0.4-0.4,0.4-1,0-1.4c-2.9-2.9-2.9-7.7,0-10.6c0.4-0.4,0.4-1,0-1.4   s-1-0.4-1.4,0C26.6,16,26.6,22.1,30.3,25.8z"/></g></svg>